<svg xmlns="http://www.w3.org/2000/svg" width="158" height="213" viewBox="0 0 158 213" fill="none">
  <path d="M0 0V30.6944L0.942037 32.95H20.8252L44.7066 0H0Z" fill="#131316"/>
  <path d="M112.349 0H68.1289L73.847 32.95H92.0088L130.66 9.79355L112.349 0Z" fill="#131316"/>
  <path d="M44.7067 0L20.8252 32.95H73.8458L68.1277 0H44.7067Z" fill="#1C1C21"/>
  <path d="M130.66 9.7937L92.0088 32.9502H123.039L130.66 9.7937Z" fill="#1C1C21"/>
  <path d="M123.037 32.9502H133.493L130.659 9.7937L123.037 32.9502Z" fill="#232329"/>
  <path d="M0 32.9502H0.942037L0 30.6946V32.9502Z" fill="#1C1C21"/>
  <path d="M152.752 0H112.348L130.659 9.79355L152.752 0Z" fill="#1C1C21"/>
  <path d="M150.043 32.95H157.767V0H152.753L130.66 9.79355L150.043 32.95Z" fill="#131316"/>
  <path d="M133.494 32.9502H150.043L130.66 9.7937L133.494 32.9502Z" fill="#1C1C21"/>
  <path d="M57.3701 54.28V55.5098L59.1292 54.28H57.3701Z" fill="#131316"/>
  <path d="M100.094 54.28H81.543L100.094 89.8391V54.28Z" fill="#1C1C21"/>
  <path d="M100.094 95.0179V89.8391L81.5426 54.28H59.1292L57.3701 55.5098V98.6315L65.7449 97.9229L100.094 95.0179Z" fill="#232329"/>
  <path d="M57.3701 98.6315V115.958L65.7449 97.9229L57.3701 98.6315Z" fill="#1C1C21"/>
  <path d="M94.3538 153.411L100.093 113.009V95.0181L65.7441 97.923L94.3538 153.411Z" fill="#1C1C21"/>
  <path d="M65.7449 97.9229L57.3701 115.958V158.264L94.3546 153.411L65.7449 97.9229Z" fill="#232329"/>
  <path d="M100.094 151.159V113.009L94.3545 153.411L100.094 151.159Z" fill="#2F2F37"/>
  <path d="M70.7608 213L86.6802 172.793L94.3546 153.411L57.3701 158.264V207.185L60.0055 213H70.7608Z" fill="#2F2F37"/>
  <path d="M57.3701 207.185V213H60.0055L57.3701 207.185Z" fill="#232329"/>
  <path d="M70.7598 213H99.7641L100.093 212.876V182.088L86.6792 172.793L70.7598 213Z" fill="#3B3B45"/>
  <path d="M86.6807 172.793L100.094 182.088V161.48L94.355 153.411L86.6807 172.793Z" fill="#232329"/>
  <path d="M94.355 153.411L86.6807 172.793L94.355 153.411Z" fill="#232329"/>
  <path d="M100.094 161.48V151.159L94.3545 153.411L100.094 161.48Z" fill="#3B3B45"/>
  <path d="M100.094 213V212.877L99.7656 213H100.094Z" fill="#2F2F37"/>
</svg>